<svg width="10" height="19" viewBox="0 0 10 19" fill="none" xmlns="http://www.w3.org/2000/svg">
<path d="M2.8574 9.71709L9.65828 2.74889C9.86952 2.52318 9.98604 2.22165 9.98284 1.90895C9.97965 1.59625 9.85699 1.29728 9.64118 1.07615C9.42538 0.855027 9.1336 0.729353 8.82841 0.726079C8.52323 0.722805 8.22895 0.842192 8.00867 1.05864L0.638949 8.61015C0.531247 8.666 0.428599 8.73447 0.3387 8.82658C0.225334 8.94303 0.136792 9.08232 0.0786774 9.23565C0.0205631 9.38897 -0.00585798 9.55298 0.0010857 9.71731C-0.00585798 9.88164 0.0205631 10.0457 0.0786774 10.199C0.136792 10.3523 0.225334 10.4916 0.3387 10.608C0.428599 10.6999 0.531247 10.7686 0.638949 10.8243L8.00867 18.376C8.117 18.487 8.2456 18.575 8.38713 18.6351C8.52867 18.6951 8.68036 18.726 8.83355 18.726C8.98674 18.726 9.13843 18.6951 9.27996 18.635C9.42148 18.5749 9.55007 18.4869 9.65839 18.3759C9.7667 18.2649 9.85262 18.1331 9.91123 17.9881C9.96985 17.8431 10 17.6876 10 17.5307C9.99999 17.3737 9.96981 17.2183 9.91117 17.0733C9.85254 16.9283 9.76661 16.7965 9.65828 16.6855L2.8574 9.71709Z" fill="#F84135"/>
</svg>
