<svg width="6" height="11" viewBox="0 0 6 11" fill="none" xmlns="http://www.w3.org/2000/svg">
<path d="M4.28556 5.50546L0.205033 9.7638C0.0782881 9.90173 0.00837803 10.086 0.0102949 10.2771C0.0122123 10.4682 0.0858045 10.6509 0.215289 10.786C0.344774 10.9212 0.519842 10.998 0.702951 11C0.88606 11.002 1.06263 10.929 1.1948 10.7967L5.61663 6.18192C5.68125 6.14779 5.74284 6.10595 5.79678 6.04965C5.8648 5.97849 5.91793 5.89337 5.95279 5.79967C5.98766 5.70597 6.00351 5.60574 5.99935 5.50532C6.00351 5.4049 5.98766 5.30467 5.95279 5.21097C5.91793 5.11727 5.8648 5.03215 5.79678 4.96098C5.74284 4.90483 5.68125 4.86285 5.61663 4.82886L1.1948 0.213907C1.1298 0.146084 1.05264 0.0922852 0.96772 0.055583C0.8828 0.0188808 0.791784 -6.67572e-06 0.69987 0C0.607956 6.67572e-06 0.516942 0.0189056 0.432026 0.0556202C0.347111 0.0923338 0.269957 0.146143 0.204968 0.213975C0.139979 0.281807 0.088428 0.362334 0.0532594 0.450958C0.0180912 0.539581 -6.19888e-06 0.634566 0 0.730489C6.19888e-06 0.826411 0.018116 0.921394 0.0532956 1.01001C0.0884757 1.09863 0.140036 1.17915 0.205033 1.24697L4.28556 5.50546Z" fill="#F84135"/>
</svg>
